<svg xmlns="http://www.w3.org/2000/svg" viewBox="0 0 800 800">
  <defs>
    <linearGradient id="bg" x1="0" y1="0" x2="1" y2="1">
      <stop offset="0" stop-color="#fff3db"/>
      <stop offset="1" stop-color="#ffe6bc"/>
    </linearGradient>
  </defs>
  <rect width="800" height="800" fill="url(#bg)"/>
  <g transform="translate(400 340)">
    <circle cx="0" cy="0" r="92" fill="#f0b448"/>
    <circle cx="0" cy="0" r="48" fill="#8f5f2f"/>
    <g fill="#f8cb63">
      <ellipse cx="0" cy="-136" rx="28" ry="72"/>
      <ellipse cx="96" cy="-96" rx="28" ry="72" transform="rotate(45 96 -96)"/>
      <ellipse cx="136" cy="0" rx="28" ry="72" transform="rotate(90 136 0)"/>
      <ellipse cx="96" cy="96" rx="28" ry="72" transform="rotate(135 96 96)"/>
      <ellipse cx="0" cy="136" rx="28" ry="72"/>
      <ellipse cx="-96" cy="96" rx="28" ry="72" transform="rotate(45 -96 96)"/>
      <ellipse cx="-136" cy="0" rx="28" ry="72" transform="rotate(90 -136 0)"/>
      <ellipse cx="-96" cy="-96" rx="28" ry="72" transform="rotate(135 -96 -96)"/>
    </g>
  </g>
  <polygon points="270,470 530,470 460,620 340,620" fill="#f7ead6" stroke="#dac4a8" stroke-width="10"/>
  <text x="400" y="710" text-anchor="middle" font-family="Arial, sans-serif" font-size="62" fill="#ad7425" font-weight="700">Sunflower Joy</text>
</svg>
